<svg xmlns="http://www.w3.org/2000/svg" viewBox="0 0 1024 1024" width="64" height="64" role="img" aria-label="Orbit IDE">
<!-- Orbit IDE: a terminal window among the stars. Generated from scripts/orbitmark.swift; edit that, not this. -->
<defs><linearGradient id="orbit-ide-tile" x1="0.25" y1="0" x2="0.75" y2="1"><stop offset="0" stop-color="#1c2540"/><stop offset="1" stop-color="#090d1a"/></linearGradient></defs><rect width="1024" height="1024" rx="230.4" fill="url(#orbit-ide-tile)"/><defs><linearGradient id="orbit-ide-mark" x1="0.25" y1="0" x2="0.75" y2="1"><stop offset="0" stop-color="#5bd4f5"/><stop offset="1" stop-color="#9a86ff"/></linearGradient></defs><path fill="url(#orbit-ide-mark)" d="M221.1 827.5C205.2 832.6 194.7 845.4 189.5 866C184.4 845.4 173.9 832.6 158 827.5C173.9 822.3 184.4 809.5 189.5 789C194.7 809.5 205.2 822.3 221.1 827.5ZM895.4 808.2C876 814.5 863.1 830.2 856.8 855.3C850.6 830.2 837.7 814.5 818.2 808.2C837.7 801.9 850.6 786.3 856.8 761.2C863.1 786.3 876 801.9 895.4 808.2ZM794.8 391.2L794.8 635C794.8 684.6 754.6 724.8 705 724.8L311.4 724.8C261.8 724.8 221.6 684.6 221.6 635L221.6 391.2C221.6 341.6 261.8 301.3 311.4 301.3L705 301.3C754.6 301.3 794.8 341.6 794.8 391.2ZM563.8 583.6C547.3 583.6 533.9 597.1 533.9 613.6C533.9 630.1 547.3 643.5 563.8 643.5L726.4 643.5C742.9 643.5 756.3 630.1 756.3 613.6C756.3 597.1 742.9 583.6 726.4 583.6ZM327 393.3C316.4 406 318 424.9 330.7 435.5L423.1 513.1L330.7 590.7C318 601.3 316.4 620.2 327 632.8C337.6 645.5 356.5 647.2 369.2 636.5L489 536C503.2 524 503.2 502.1 489 490.1L369.2 389.6C356.5 379 337.6 380.6 327 393.3ZM942.1 252.1C921.7 258.7 908.3 275.1 901.7 301.3C895.2 275.1 881.7 258.7 861.4 252.1C881.7 245.6 895.2 229.2 901.7 203C908.3 229.2 921.7 245.6 942.1 252.1ZM173.1 213.6C150.1 221.1 134.9 239.6 127.5 269.3C120.1 239.6 104.9 221.1 81.9 213.6C104.9 206.2 120.1 187.7 127.5 158C134.9 187.7 150.1 206.2 173.1 213.6Z"/>
</svg>
